<?xml version="1.0" encoding="UTF-8" standalone="no"?>
<svg
   xmlns:dc="http://purl.org/dc/elements/1.1/"
   xmlns:cc="http://creativecommons.org/ns#"
   xmlns:rdf="http://www.w3.org/1999/02/22-rdf-syntax-ns#"
   xmlns:svg="http://www.w3.org/2000/svg"
   xmlns="http://www.w3.org/2000/svg"
   xmlns:sodipodi="http://sodipodi.sourceforge.net/DTD/sodipodi-0.dtd"
   xmlns:inkscape="http://www.inkscape.org/namespaces/inkscape"
   id="Layer_1"
   data-name="Layer 1"
   viewBox="0 0 141.36 137.43"
   version="1.1"
   sodipodi:docname="settings.svg"
   inkscape:version="1.0.1 (3bc2e813f5, 2020-09-07)">
  <metadata
     id="metadata44">
    <rdf:RDF>
      <cc:Work
         rdf:about="">
        <dc:format>image/svg+xml</dc:format>
        <dc:type
           rdf:resource="http://purl.org/dc/dcmitype/StillImage" />
        <dc:title>settings</dc:title>
      </cc:Work>
    </rdf:RDF>
  </metadata>
  <sodipodi:namedview
     pagecolor="#ffffff"
     bordercolor="#666666"
     borderopacity="1"
     objecttolerance="10"
     gridtolerance="10"
     guidetolerance="10"
     inkscape:pageopacity="0"
     inkscape:pageshadow="2"
     inkscape:window-width="1920"
     inkscape:window-height="1013"
     id="namedview42"
     showgrid="false"
     inkscape:zoom="3.0633777"
     inkscape:cx="40.318474"
     inkscape:cy="96.615227"
     inkscape:window-x="-9"
     inkscape:window-y="-9"
     inkscape:window-maximized="1"
     inkscape:current-layer="layer2"
     inkscape:document-rotation="0" />
  <defs
     id="defs33">
    <style
       id="style28">.cls-1{fill:none;}.cls-2{clip-path:url(#clip-path);}</style>
    <clipPath
       id="clip-path">
      <rect
         class="cls-1"
         x="45.65"
         y="42.62"
         width="49.58"
         height="52.43"
         id="rect30" />
    </clipPath>
  </defs>
  <title
     id="title35">settings</title>
  <g
     inkscape:groupmode="layer"
     id="layer2"
     inkscape:label="Layer 2"
     style="display:inline">
    <g
       id="g1073"
       transform="matrix(4.8447031,0,0,4.5286291,12.007462,12.797172)">
      <g
         id="g1017">
        <path
           d="m 0,3.875 c 0,-1.104 0.896,-2 2,-2 h 20.75 c 1.104,0 2,0.896 2,2 0,1.104 -0.896,2 -2,2 H 2 c -1.104,0 -2,-0.896 -2,-2 z m 22.75,6.5 H 2 c -1.104,0 -2,0.896 -2,2 0,1.104 0.896,2 2,2 h 20.75 c 1.104,0 2,-0.896 2,-2 0,-1.104 -0.895,-2 -2,-2 z m 0,8.5 H 2 c -1.104,0 -2,0.896 -2,2 0,1.104 0.896,2 2,2 h 20.75 c 1.104,0 2,-0.896 2,-2 0,-1.104 -0.895,-2 -2,-2 z"
           id="path1015" />
      </g>
      <g
         id="g1019" />
      <g
         id="g1021" />
      <g
         id="g1023" />
      <g
         id="g1025" />
      <g
         id="g1027" />
      <g
         id="g1029" />
      <g
         id="g1031" />
      <g
         id="g1033" />
      <g
         id="g1035" />
      <g
         id="g1037" />
      <g
         id="g1039" />
      <g
         id="g1041" />
      <g
         id="g1043" />
      <g
         id="g1045" />
      <g
         id="g1047" />
    </g>
  </g>
</svg>
